<svg xmlns="http://www.w3.org/2000/svg" version="1.1" xmlns:xlink="http://www.w3.org/1999/xlink" viewBox="0 0 200 200"><rect width="200" height="200" fill="url('#gradient')"></rect><defs><linearGradient id="gradient" gradientTransform="rotate(355 0.5 0.5)"><stop offset="0%" stop-color="#7d0ac4"></stop><stop offset="100%" stop-color="#de8b57"></stop></linearGradient></defs><g><g fill="#87c8a4" transform="matrix(4.407855797686306,0,0,4.407855797686306,15.277379877213875,131.33923017654746)" stroke="#fbc952" stroke-width="1"><path d="M5.75 0L1.07 0L1.07-14.22L5.65-14.22Q7.54-14.22 9.04-13.36Q10.55-12.51 11.39-10.95Q12.24-9.39 12.25-7.46L12.25-7.46L12.25-6.81Q12.25-4.85 11.42-3.31Q10.60-1.76 9.10-0.88Q7.60-0.01 5.75 0L5.75 0ZM5.65-11.57L4.50-11.57L4.50-2.64L5.69-2.64Q7.17-2.64 7.96-3.69Q8.75-4.74 8.75-6.81L8.75-6.81L8.75-7.42Q8.75-9.48 7.96-10.53Q7.17-11.57 5.65-11.57L5.65-11.57ZM22.82-8.57L22.82-6.03L17.43-6.03L17.43-2.64L23.80-2.64L23.80 0L14.00 0L14.00-14.22L23.82-14.22L23.82-11.57L17.43-11.57L17.43-8.57L22.82-8.57ZM27.89-14.22L30.71-3.87L33.54-14.22L37.37-14.22L32.59 0L28.84 0L24.09-14.22L27.89-14.22Z"></path></g></g></svg>